<!DOCTYPE svg PUBLIC "-//W3C//DTD SVG 20010904//EN" "http://www.w3.org/TR/2001/REC-SVG-20010904/DTD/svg10.dtd">
<svg version="1.0" xmlns="http://www.w3.org/2000/svg" width="500px" height="500px" viewBox="0 0 5000 5000" preserveAspectRatio="xMidYMid meet">
<g id="layer101" fill="#020304" stroke="none">
<path d="M0 2500 l0 -2500 2500 0 2500 0 0 2500 0 2500 -2500 0 -2500 0 0 -2500z"/>
</g>
<g id="layer102" fill="#131d38" stroke="none">
<path d="M0 2500 l0 -2500 2500 0 2500 0 0 2500 0 2500 -2500 0 -2500 0 0 -2500z m2915 1627 c22 -2 49 -6 60 -10 11 -3 40 -9 65 -11 25 -3 98 -18 163 -35 429 -112 795 -381 1030 -757 409 -655 324 -1511 -208 -2095 -244 -268 -583 -455 -954 -526 -14 -3 -59 -6 -99 -8 -41 -2 -76 -6 -80 -9 -8 -9 -278 -6 -337 4 -27 4 -39 8 -25 9 14 1 36 4 49 8 17 4 22 3 17 -5 -5 -8 4 -12 31 -11 34 1 35 2 13 9 l-25 8 28 1 c15 1 27 -2 27 -7 0 -4 55 -4 123 1 67 4 134 5 150 2 15 -2 27 0 27 5 0 6 11 10 24 10 38 0 213 38 295 64 193 61 386 167 556 303 288 231 505 588 585 965 23 109 44 387 35 473 -23 220 -53 352 -119 516 -133 331 -351 599 -647 797 -74 49 -319 176 -319 165 0 -3 -6 0 -13 6 -8 6 -17 8 -20 4 -4 -3 -7 -1 -7 6 0 8 -7 11 -15 7 -8 -3 -15 -1 -15 5 0 6 -7 9 -15 5 -8 -3 -15 -1 -15 5 0 6 -7 9 -15 5 -8 -3 -15 -1 -15 5 0 6 -7 9 -15 6 -8 -4 -17 -2 -20 4 -4 5 -10 7 -15 4 -5 -3 -12 0 -15 6 -4 5 -13 8 -21 5 -7 -3 -16 -1 -19 3 -3 5 -29 12 -58 16 -28 4 -61 10 -72 12 -11 3 -105 7 -210 10 -204 6 -305 -4 -523 -52 -85 -19 -352 -135 -360 -156 -2 -5 -8 -7 -13 -3 -5 3 -9 0 -9 -7 0 -7 -3 -10 -6 -6 -3 3 -11 1 -18 -4 -6 -6 -37 -27 -68 -47 -97 -63 -260 -198 -319 -264 -272 -308 -413 -630 -450 -1028 -27 -292 34 -617 165 -880 53 -106 142 -249 190 -304 13 -17 23 -33 20 -38 -3 -4 1 -8 8 -8 14 0 44 -40 40 -53 -1 -5 2 -6 7 -3 5 3 21 -9 36 -26 26 -32 73 -74 206 -182 67 -55 241 -160 326 -197 77 -33 98 -42 103 -44 30 -8 50 -18 50 -25 0 -5 7 -6 17 -3 11 5 14 3 8 -6 -6 -10 -2 -11 15 -6 17 5 21 4 15 -6 -6 -9 -2 -11 15 -6 16 4 20 3 12 -5 -11 -11 -150 29 -204 58 -16 8 -28 12 -28 9 0 -14 -209 103 -303 170 -97 69 -357 306 -357 326 0 5 -22 40 -48 77 -69 96 -85 123 -151 257 -158 324 -206 679 -142 1056 59 343 216 649 465 907 114 119 322 282 338 266 3 -2 13 5 23 16 10 11 26 20 35 20 10 0 34 11 54 25 20 13 36 22 36 20 0 -3 21 5 48 18 26 13 72 33 102 44 30 12 64 25 75 29 11 4 23 8 28 9 4 2 9 4 12 5 3 1 10 4 15 5 6 1 11 3 13 4 1 2 15 4 31 6 16 2 44 11 63 20 21 10 47 15 64 11 15 -3 31 -1 34 5 4 5 16 7 26 4 11 -4 26 -1 34 5 10 8 30 10 59 6 29 -5 47 -3 51 5 5 8 39 9 119 5 61 -4 129 -8 151 -9z m-601 -3388 c-5 -9 1 -10 20 -5 20 5 26 4 20 -5 -5 -9 2 -10 27 -6 26 5 30 4 19 -4 -11 -8 -5 -9 25 -5 32 4 36 3 21 -6 -24 -14 -177 19 -155 33 20 12 31 11 23 -2z m201 -39 c-11 -5 -31 -8 -45 -8 -23 0 -22 1 5 8 42 11 65 11 40 0z"/>
<path d="M2153 783 c4 -3 10 -3 14 0 3 4 0 7 -7 7 -7 0 -10 -3 -7 -7z"/>
</g>
<g id="layer103" fill="#242b33" stroke="none">
<path d="M2515 4099 c-27 -6 -86 -17 -130 -25 -114 -20 -115 -21 -218 -58 -100 -36 -240 -103 -245 -117 -2 -5 -8 -7 -13 -3 -5 3 -9 0 -9 -7 0 -7 -3 -10 -6 -6 -3 3 -11 1 -18 -4 -6 -6 -37 -27 -68 -47 -97 -63 -260 -198 -319 -264 -272 -308 -413 -630 -450 -1028 -27 -292 34 -617 165 -880 53 -106 142 -249 190 -304 13 -17 23 -33 20 -38 -3 -4 1 -8 8 -8 14 0 44 -40 40 -53 -1 -5 2 -6 7 -3 5 3 21 -9 36 -26 26 -32 73 -74 206 -182 109 -90 381 -237 452 -245 8 -1 8 -4 -3 -12 -12 -8 -10 -9 8 -4 12 4 22 2 22 -4 0 -6 7 -7 17 -4 11 5 14 3 8 -6 -6 -10 -2 -11 15 -6 17 5 21 4 15 -6 -6 -9 -2 -11 13 -7 14 4 20 2 16 -4 -5 -7 2 -9 20 -4 20 5 26 4 20 -5 -5 -9 1 -10 20 -5 20 5 26 4 20 -5 -5 -9 2 -10 27 -6 26 5 30 4 19 -4 -11 -8 -5 -9 25 -5 30 4 36 3 25 -5 -11 -8 -2 -9 35 -5 36 3 44 2 30 -5 -14 -7 -5 -8 33 -5 32 3 50 1 47 -4 -4 -6 10 -10 32 -9 34 1 35 2 13 9 l-25 8 28 1 c15 1 27 -2 27 -7 0 -4 55 -4 123 1 67 4 134 5 150 2 15 -2 27 0 27 5 0 6 11 10 24 10 80 0 315 64 456 125 185 79 441 258 540 376 25 30 51 61 58 69 62 70 182 265 233 376 109 242 159 478 159 751 0 340 -86 643 -264 931 -28 46 -56 94 -63 105 -44 80 -268 287 -414 385 -74 49 -319 176 -319 165 0 -3 -6 0 -13 6 -8 6 -17 8 -20 4 -4 -3 -7 -1 -7 6 0 8 -7 11 -15 7 -8 -3 -15 -1 -15 5 0 6 -7 9 -15 5 -8 -3 -15 -1 -15 5 0 6 -7 9 -15 5 -8 -3 -15 -1 -15 5 0 6 -7 9 -15 6 -8 -4 -17 -2 -20 4 -4 5 -10 7 -15 4 -5 -3 -12 0 -15 6 -4 5 -13 8 -21 5 -7 -3 -16 -1 -19 3 -3 5 -29 12 -58 16 -28 4 -61 10 -72 12 -39 10 -451 12 -500 2z"/>
<path d="M1863 3903 c4 -3 10 -3 14 0 3 4 0 7 -7 7 -7 0 -10 -3 -7 -7z"/>
<path d="M1775 3868 c-16 -5 -68 -24 -115 -41 -74 -27 -95 -32 -133 -36 -5 -1 -5 -6 -2 -11 7 -11 -42 -33 -55 -25 -12 7 -41 -5 -35 -15 4 -7 -77 -70 -90 -70 -13 0 -175 -123 -210 -159 -22 -22 -45 -39 -52 -36 -12 4 -36 -18 -28 -26 5 -6 -96 -125 -104 -122 -13 3 -30 -19 -24 -33 3 -8 -3 -25 -14 -37 -11 -12 -23 -29 -27 -37 -3 -8 -15 -28 -26 -45 -23 -36 -75 -145 -99 -208 -6 -16 -15 -26 -21 -22 -5 3 -9 -6 -8 -22 1 -15 -10 -76 -25 -134 -15 -58 -31 -141 -36 -185 -13 -110 -6 -351 15 -459 9 -49 17 -97 19 -105 1 -8 5 -23 9 -32 4 -9 3 -25 -3 -37 -15 -26 -14 -29 6 -27 13 1 23 -16 39 -59 11 -33 35 -91 52 -129 18 -37 29 -73 25 -79 -3 -6 -1 -7 5 -3 12 7 36 -30 27 -43 -3 -5 -1 -11 4 -13 18 -6 111 -159 105 -170 -4 -6 -3 -8 4 -4 10 6 77 -69 77 -86 0 -4 5 -8 10 -9 18 -1 45 -32 43 -47 -2 -8 13 -24 32 -34 43 -24 110 -87 107 -102 -1 -5 6 -10 15 -11 9 0 34 -19 56 -43 26 -28 45 -40 55 -36 10 3 21 -4 32 -20 9 -13 22 -23 30 -20 7 3 19 -4 27 -15 8 -12 17 -18 20 -15 6 6 78 -32 93 -49 6 -7 21 -13 35 -15 14 -1 30 -8 35 -16 6 -7 15 -11 20 -9 6 1 26 -7 45 -19 19 -12 46 -23 59 -25 13 -2 46 -13 74 -23 27 -11 71 -22 96 -25 25 -3 57 -8 71 -11 14 -2 -21 20 -78 50 -57 30 -147 86 -200 124 -94 67 -352 304 -352 323 0 5 -22 40 -48 77 -69 96 -85 123 -151 257 -158 324 -206 679 -142 1056 59 346 216 650 470 912 88 91 279 247 301 247 6 0 10 5 10 10 0 12 -5 12 -45 -2z"/>
</g>
<g id="layer104" fill="#91726a" stroke="none">
<path d="M2525 4100 c-22 -4 -74 -13 -115 -20 -127 -20 -448 -139 -434 -161 3 -5 -2 -9 -10 -9 -28 0 -162 -76 -247 -140 -114 -86 -280 -255 -361 -370 -157 -221 -272 -510 -307 -771 -10 -72 -15 -361 -7 -424 9 -75 51 -249 82 -345 79 -236 181 -409 362 -615 92 -103 259 -236 397 -316 375 -216 808 -286 1231 -199 388 80 724 285 956 585 188 242 306 519 353 833 20 133 20 388 0 511 -109 669 -513 1157 -1125 1360 -223 73 -279 83 -520 87 -118 1 -233 -1 -255 -6z"/>
<path d="M1665 3829 c-66 -22 -127 -47 -135 -54 -8 -7 -28 -17 -45 -21 -16 -3 -39 -14 -50 -23 -30 -25 -83 -61 -89 -61 -13 0 -175 -122 -214 -161 -23 -23 -45 -39 -48 -36 -4 3 -18 -11 -31 -31 -35 -50 -96 -118 -105 -115 -4 2 -11 -9 -14 -25 -4 -15 -14 -36 -24 -47 -9 -11 -20 -27 -24 -35 -3 -8 -15 -28 -26 -45 -29 -45 -100 -196 -100 -213 0 -5 -5 -13 -12 -20 -6 -6 -12 -20 -13 -29 -1 -10 -14 -66 -28 -124 -15 -58 -31 -141 -36 -185 -13 -110 -6 -351 15 -459 9 -49 17 -97 18 -105 1 -9 5 -21 10 -28 4 -7 5 -21 1 -31 -3 -10 1 -24 10 -31 8 -7 21 -33 29 -59 8 -25 30 -81 50 -125 20 -43 33 -83 29 -89 -3 -6 -1 -7 5 -3 13 8 36 -30 27 -44 -3 -6 -2 -10 3 -10 5 0 30 -34 56 -75 26 -41 69 -101 94 -132 26 -32 46 -59 45 -60 -2 -2 0 -3 5 -4 13 -1 42 -32 42 -45 0 -7 20 -26 43 -43 24 -16 58 -46 75 -65 17 -20 35 -36 39 -36 4 0 28 -20 51 -44 24 -25 50 -42 57 -39 8 2 20 -5 27 -16 7 -12 20 -21 30 -21 9 0 23 -9 31 -20 8 -11 16 -17 19 -14 3 3 23 -5 44 -17 70 -40 89 -49 102 -49 7 0 15 -7 18 -15 4 -8 10 -12 15 -9 5 3 25 -4 45 -15 19 -11 46 -23 60 -25 30 -6 94 -26 109 -34 5 -3 16 -7 25 -8 8 -1 35 -5 60 -9 45 -6 45 -6 -35 38 -80 43 -143 83 -240 152 -52 36 -305 284 -305 298 0 4 -22 38 -48 75 -70 97 -86 124 -151 257 -119 244 -170 475 -171 774 -1 448 191 898 518 1219 65 64 210 182 268 219 36 23 -9 13 -131 -28z"/>
</g>
<g id="layer105" fill="#a4796d" stroke="none">
<path d="M1668 3830 c-64 -22 -132 -50 -151 -62 -19 -13 -53 -34 -76 -48 -114 -68 -255 -187 -351 -295 -91 -102 -100 -113 -145 -181 -22 -32 -46 -65 -52 -72 -12 -13 -16 -27 -10 -36 1 -2 -5 -12 -14 -22 -26 -30 -38 -57 -84 -192 -44 -130 -95 -325 -92 -352 1 -8 -2 -51 -7 -95 -5 -44 -9 -82 -9 -85 1 -3 4 -52 7 -110 4 -58 9 -121 12 -140 14 -84 60 -242 95 -324 22 -49 39 -93 39 -98 0 -5 11 -24 25 -42 14 -18 25 -38 25 -44 0 -6 13 -26 28 -44 16 -18 41 -54 56 -80 16 -27 31 -48 35 -48 5 0 12 -8 17 -19 54 -112 327 -357 499 -446 22 -12 49 -26 60 -33 37 -21 180 -84 199 -88 25 -5 89 -25 101 -32 5 -3 16 -7 25 -8 8 0 33 -5 55 -9 22 -4 38 -5 35 -3 -3 3 -58 35 -124 72 -65 37 -128 76 -140 88 -11 11 -34 26 -51 35 -33 16 -295 281 -295 298 0 5 -10 21 -23 35 -13 14 -26 32 -30 40 -4 8 -25 42 -47 75 -93 141 -182 344 -223 511 -53 210 -60 563 -17 769 93 443 345 825 714 1084 33 22 53 41 45 41 -8 -1 -67 -18 -131 -40z"/>
</g>
<g id="layer106" fill="#ab877a" stroke="none">
<path d="M1668 3830 c-64 -22 -132 -50 -151 -62 -19 -13 -53 -34 -76 -48 -84 -50 -217 -157 -299 -240 -127 -127 -209 -242 -273 -380 -11 -25 -27 -52 -35 -61 -16 -18 -56 -124 -58 -156 0 -13 -3 -23 -6 -23 -3 0 -6 -17 -6 -38 -1 -21 -11 -56 -23 -79 -11 -23 -17 -44 -12 -48 6 -3 5 -20 -1 -41 -5 -20 -12 -46 -15 -58 -9 -34 -10 -368 -2 -401 4 -16 10 -56 13 -87 4 -59 19 -115 42 -160 8 -14 14 -33 14 -42 0 -29 42 -150 62 -178 10 -15 24 -42 30 -60 7 -18 27 -54 45 -79 18 -26 33 -50 33 -55 0 -4 11 -19 24 -33 14 -15 31 -38 38 -52 66 -128 325 -362 503 -454 22 -12 49 -26 60 -33 37 -21 180 -84 199 -88 25 -5 89 -25 101 -32 5 -3 16 -7 25 -8 8 0 33 -5 55 -9 22 -4 38 -5 35 -3 -3 3 -58 35 -124 72 -65 37 -128 76 -140 88 -11 11 -34 26 -51 35 -33 16 -295 281 -295 298 0 5 -10 21 -23 35 -13 14 -26 32 -30 40 -4 8 -25 42 -47 75 -93 141 -182 344 -223 511 -53 210 -60 563 -17 769 93 443 345 825 714 1084 33 22 53 41 45 41 -8 -1 -67 -18 -131 -40z"/>
</g>
<g id="layer107" fill="#ccb2a5" stroke="none">
<path d="M1668 3830 c-79 -27 -140 -55 -184 -85 -36 -25 -68 -45 -72 -45 -4 0 -19 -10 -34 -23 -14 -12 -52 -42 -84 -67 -31 -25 -98 -89 -149 -143 -156 -163 -270 -355 -338 -568 -69 -218 -88 -332 -88 -547 0 -189 8 -234 74 -446 100 -320 326 -635 593 -823 89 -63 117 -81 190 -122 39 -21 180 -83 198 -87 25 -5 89 -25 101 -32 5 -3 16 -7 25 -8 8 0 33 -4 55 -8 l40 -8 -40 24 c-22 13 -78 46 -124 72 -46 26 -93 57 -105 68 -12 11 -34 27 -50 35 -26 13 -159 134 -190 172 -6 7 -32 37 -58 66 -27 28 -48 56 -48 61 0 5 -10 20 -23 34 -13 14 -26 32 -30 40 -4 8 -26 42 -48 75 -93 140 -195 380 -234 552 -19 85 -22 114 -30 353 -7 191 1 285 41 450 94 387 344 756 673 990 46 33 77 60 70 60 -8 -1 -67 -19 -131 -40z"/>
</g>
<g id="layer108" fill="#92c7f0" stroke="none">
<path d="M2525 4100 c-22 -4 -74 -13 -115 -20 -127 -20 -448 -139 -434 -161 3 -5 -2 -9 -10 -9 -28 0 -162 -76 -247 -140 -114 -86 -280 -255 -361 -370 -157 -222 -263 -485 -302 -753 -14 -95 -21 -374 -11 -442 39 -265 129 -520 252 -712 73 -117 213 -282 296 -351 154 -127 192 -155 292 -213 375 -216 808 -286 1231 -199 388 80 724 285 956 585 188 242 306 519 353 833 20 133 20 388 0 511 -109 669 -513 1157 -1125 1360 -223 73 -279 83 -520 87 -118 1 -233 -1 -255 -6z"/>
</g>
<g id="layer109" fill="#bec8cc" stroke="none">
<path d="M1668 3830 c-79 -27 -140 -55 -184 -85 -36 -25 -68 -45 -72 -45 -16 -1 -85 -63 -209 -189 -116 -117 -143 -151 -210 -265 -80 -135 -121 -224 -172 -375 -67 -199 -77 -265 -74 -541 1 -165 4 -207 23 -275 11 -44 25 -100 31 -125 5 -25 14 -52 19 -62 5 -9 23 -53 41 -98 35 -92 73 -163 143 -265 81 -119 95 -138 166 -217 38 -43 72 -84 77 -91 4 -7 37 -33 73 -58 36 -25 111 -78 167 -117 56 -40 105 -72 108 -72 9 0 95 -38 138 -61 20 -11 37 -18 37 -15 0 5 58 -13 100 -31 8 -3 22 -7 30 -8 8 -1 33 -5 55 -9 l40 -8 -40 24 c-22 13 -78 46 -124 72 -46 26 -93 57 -105 68 -12 11 -34 27 -50 35 -26 13 -159 134 -190 172 -6 7 -32 37 -58 66 -27 28 -48 56 -48 61 0 5 -10 20 -23 34 -13 14 -26 32 -30 40 -4 8 -26 42 -48 75 -97 146 -207 410 -239 577 -8 37 -17 65 -22 62 -4 -3 -8 -1 -8 5 0 5 5 11 10 13 8 2 8 31 0 93 -54 475 84 931 395 1305 88 105 213 221 319 295 44 30 73 55 65 55 -8 -1 -67 -19 -131 -40z"/>
<path d="M1060 2700 c0 -7 3 -10 7 -7 3 4 3 10 0 14 -4 3 -7 0 -7 -7z"/>
<path d="M1051 2634 c0 -11 3 -14 6 -6 3 7 2 16 -1 19 -3 4 -6 -2 -5 -13z"/>
<path d="M1042 2550 c0 -14 2 -19 5 -12 2 6 2 18 0 25 -3 6 -5 1 -5 -13z"/>
<path d="M1037 2265 c7 -49 13 -58 13 -19 0 16 -5 36 -10 44 -6 10 -7 2 -3 -25z"/>
<path d="M1060 2100 c0 -7 3 -10 7 -7 3 4 3 10 0 14 -4 3 -7 0 -7 -7z"/>
</g>
<g id="layer110" fill="#d5cab6" stroke="none">
<path d="M1735 3849 c-16 -5 -74 -30 -127 -57 -80 -39 -93 -43 -75 -23 l22 24 -32 -23 c-18 -13 -29 -28 -26 -33 4 -6 0 -8 -9 -4 -9 3 -24 -3 -34 -14 -9 -10 -24 -19 -33 -19 -19 0 -52 -35 -43 -45 4 -4 3 -5 -3 -3 -17 5 -86 -52 -198 -167 -156 -160 -267 -350 -356 -614 -67 -199 -77 -265 -74 -541 1 -165 4 -207 23 -275 11 -44 25 -100 31 -125 5 -25 14 -52 19 -62 5 -9 23 -53 41 -98 35 -92 73 -163 143 -265 81 -119 95 -138 166 -217 38 -43 72 -84 77 -91 4 -7 37 -33 73 -58 36 -25 110 -77 165 -116 55 -38 111 -74 125 -78 14 -4 48 -18 75 -31 60 -28 226 -84 249 -84 9 0 16 5 16 10 0 6 -6 10 -14 10 -25 0 -190 90 -221 120 -17 17 -35 30 -39 30 -4 0 -15 8 -24 18 -10 11 -13 12 -8 2 5 -8 -3 -3 -18 12 -14 15 -39 34 -54 42 -26 13 -68 61 -70 79 0 5 -10 17 -21 26 -11 10 -18 21 -14 25 8 8 -56 76 -72 76 -6 0 -11 9 -12 20 -1 11 -8 27 -15 35 -29 32 -43 50 -43 55 0 3 -14 25 -30 50 -15 25 -38 60 -49 77 -12 18 -24 33 -28 33 -5 0 -8 8 -8 18 0 10 -7 28 -16 40 -20 29 -96 213 -116 282 -5 19 -14 40 -19 46 -6 7 -9 16 -7 20 5 18 -25 153 -34 148 -4 -3 -8 -1 -8 5 0 5 5 11 10 13 7 2 7 37 -1 108 -16 143 -6 388 21 515 11 55 22 115 25 134 2 18 8 38 13 45 5 6 24 50 41 97 37 101 124 267 188 359 126 178 248 304 421 433 63 47 65 54 7 36z m-318 -166 c-4 -3 -10 -3 -14 0 -3 4 0 7 7 7 7 0 10 -3 7 -7z m-67 -2344 c0 -6 -4 -7 -10 -4 -5 3 -10 11 -10 16 0 6 5 7 10 4 6 -3 10 -11 10 -16z"/>
<path d="M1030 2290 c0 -7 3 -10 7 -7 3 4 3 10 0 14 -4 3 -7 0 -7 -7z"/>
<path d="M1040 2190 c0 -7 3 -10 7 -7 3 4 3 10 0 14 -4 3 -7 0 -7 -7z"/>
</g>
<g id="layer111" fill="#e4d4bc" stroke="none">
<path d="M1735 3849 c-16 -5 -74 -30 -127 -57 -80 -39 -93 -43 -75 -23 l22 24 -32 -23 c-18 -13 -29 -28 -26 -33 4 -6 0 -8 -9 -4 -9 3 -24 -3 -34 -14 -9 -10 -24 -19 -33 -19 -17 0 -52 -34 -45 -44 2 -3 1 -4 -2 -1 -10 7 -216 -187 -277 -263 -138 -168 -260 -424 -322 -672 -24 -98 -30 -176 -28 -390 1 -164 4 -208 22 -275 12 -44 26 -98 32 -120 31 -123 122 -311 213 -444 28 -40 58 -83 66 -96 37 -55 161 -183 235 -242 101 -81 256 -185 315 -211 25 -11 70 -32 101 -45 60 -27 183 -67 205 -67 8 0 14 5 14 10 0 6 -6 10 -14 10 -25 0 -190 90 -221 120 -17 17 -35 30 -41 30 -5 0 -15 9 -22 20 -6 11 -18 17 -26 14 -7 -3 -16 2 -19 10 -3 9 -22 22 -42 30 -19 8 -35 21 -35 29 0 8 -9 22 -20 32 -11 10 -17 21 -15 26 3 4 -3 10 -14 14 -11 3 -22 13 -25 21 -3 8 -2 12 4 9 22 -14 8 13 -23 43 -36 35 -60 42 -50 15 7 -19 5 -18 -17 10 -11 16 -11 18 1 15 16 -4 14 28 -4 48 -7 7 -19 21 -27 31 -13 16 -15 15 -21 -8 -6 -22 -7 -22 -14 -5 -6 13 -3 21 8 28 15 8 15 12 -5 38 -12 17 -28 30 -35 30 -16 0 -17 -12 -1 -28 16 -16 -3 -16 -25 1 -21 15 -57 85 -46 89 5 2 6 12 3 24 -4 16 -12 20 -32 17 -20 -3 -23 -2 -13 5 17 12 6 32 -20 32 -10 0 -19 4 -19 9 0 5 -9 7 -20 4 -12 -3 -20 0 -20 8 0 7 -10 23 -22 36 -18 20 -19 23 -5 23 9 0 17 5 17 10 0 12 -49 60 -61 60 -4 0 -1 14 8 30 14 30 14 32 -11 53 -14 13 -26 30 -26 39 0 31 -31 102 -50 115 -26 18 -26 59 0 75 23 15 27 38 6 38 -10 0 -13 13 -11 50 2 32 -2 50 -9 50 -17 0 -16 48 1 54 12 5 11 11 -4 38 -10 18 -21 35 -24 38 -3 3 -9 24 -13 47 -5 36 -3 45 14 55 22 14 27 38 7 38 -7 0 -18 9 -24 20 -13 20 -1 41 29 53 9 4 10 8 2 14 -20 15 -22 61 -3 90 12 18 15 31 8 39 -6 7 -4 15 5 23 11 9 12 20 5 43 -5 18 -6 34 -4 37 3 2 5 -1 5 -7 0 -7 7 -12 15 -12 8 0 15 9 15 20 0 10 7 23 16 28 13 7 16 23 15 65 0 31 4 59 9 62 6 4 5 12 -4 21 -13 12 -10 21 20 65 19 28 34 55 34 61 0 5 4 6 10 3 8 -5 43 7 58 20 2 2 -2 12 -10 24 -11 17 -10 25 5 51 10 16 16 30 13 30 -3 0 4 11 16 25 12 14 31 25 43 25 23 0 85 73 85 100 0 19 40 60 59 60 6 0 17 14 23 30 5 17 19 35 30 41 13 7 17 16 13 30 -4 11 -3 18 2 17 4 -1 19 4 31 11 18 10 22 18 18 37 -4 13 -3 24 1 23 5 -1 18 -1 31 0 21 1 23 5 17 30 -3 17 -2 32 4 36 7 4 8 -1 4 -12 -6 -17 -5 -17 13 -2 10 9 29 20 42 23 12 4 27 16 32 27 6 10 19 19 30 19 10 0 20 4 22 10 2 5 39 34 83 65 77 54 82 63 20 44z m-318 -166 c-4 -3 -10 -3 -14 0 -3 4 0 7 7 7 7 0 10 -3 7 -7z m-306 -396 c-6 -8 -8 -17 -4 -20 3 -4 1 -7 -5 -7 -15 0 -15 13 0 28 16 16 23 15 9 -1z m-191 -571 c0 -3 -4 -8 -10 -11 -5 -3 -10 -1 -10 4 0 6 5 11 10 11 6 0 10 -2 10 -4z m75 -936 c3 -5 4 -10 1 -10 -3 0 -8 5 -11 10 -3 6 -4 10 -1 10 3 0 8 -4 11 -10z m15 -105 c0 -8 -4 -15 -10 -15 -5 0 -10 7 -10 15 0 8 5 15 10 15 6 0 10 -7 10 -15z m62 -112 c-6 -3 -9 -10 -6 -15 4 -7 2 -8 -5 -4 -9 6 -9 11 0 22 6 8 15 12 18 8 3 -4 0 -9 -7 -11z m272 -236 c-7 -18 -34 -24 -34 -7 0 6 5 10 10 10 6 0 10 8 10 17 0 12 3 14 10 7 6 -6 8 -18 4 -27z m91 -117 c3 -5 4 -10 1 -10 -3 0 -8 5 -11 10 -3 6 -4 10 -1 10 3 0 8 -4 11 -10z m210 -190 c3 -5 4 -10 1 -10 -3 0 -8 5 -11 10 -3 6 -4 10 -1 10 3 0 8 -4 11 -10z"/>
<path d="M900 2510 c0 -5 4 -10 9 -10 6 0 13 5 16 10 3 6 -1 10 -9 10 -9 0 -16 -4 -16 -10z"/>
<path d="M1055 1840 c-3 -5 -1 -10 4 -10 6 0 11 5 11 10 0 6 -2 10 -4 10 -3 0 -8 -4 -11 -10z"/>
<path d="M1053 1763 c4 -3 10 -3 14 0 3 4 0 7 -7 7 -7 0 -10 -3 -7 -7z"/>
<path d="M1187 1603 c-4 -3 -7 -13 -7 -22 1 -13 3 -13 11 2 11 19 8 33 -4 20z"/>
<path d="M1240 1450 c0 -7 3 -10 7 -7 3 4 3 10 0 14 -4 3 -7 0 -7 -7z"/>
</g>
<g id="layer112" fill="#b0d6ef" stroke="none">
<path d="M1918 2783 c-30 -8 -20 -28 14 -28 44 0 46 -21 4 -42 -45 -21 -55 -48 -28 -75 15 -15 27 -19 46 -14 36 9 33 26 -4 26 -42 0 -39 26 5 47 19 9 37 23 40 30 6 16 -11 53 -25 53 -4 0 -14 2 -22 4 -7 2 -21 2 -30 -1z"/>
<path d="M2094 2778 c-22 -10 -44 -47 -44 -73 0 -42 43 -85 86 -85 26 0 64 47 64 79 0 43 -9 60 -41 76 -32 17 -36 17 -65 3z m64 -30 c17 -17 15 -73 -2 -88 -42 -34 -92 22 -68 75 13 27 49 34 70 13z"/>
<path d="M2458 2776 c-20 -10 -23 -20 -26 -79 -2 -42 1 -67 8 -67 5 0 10 18 10 39 0 60 16 93 43 89 20 -3 22 -9 25 -65 2 -47 7 -63 17 -63 19 0 21 109 3 132 -18 22 -52 28 -80 14z"/>
<path d="M2940 2777 c-54 -27 -61 -99 -13 -137 33 -25 54 -25 87 1 20 16 26 29 26 59 0 63 -50 102 -100 77z m58 -29 c17 -17 15 -73 -2 -88 -42 -34 -92 22 -68 75 13 27 49 34 70 13z"/>
<path d="M3328 2783 c-31 -8 -20 -28 15 -28 42 0 41 -18 -3 -47 -19 -13 -36 -31 -38 -40 -5 -24 42 -52 73 -44 37 9 30 26 -10 26 -46 0 -45 20 3 45 45 24 53 56 20 79 -23 16 -29 17 -60 9z"/>
<path d="M2270 2705 c0 -60 3 -75 15 -75 12 0 15 14 15 65 l0 65 29 0 c17 0 33 5 36 10 4 6 -13 10 -44 10 l-51 0 0 -75z"/>
<path d="M2660 2715 c0 -63 -1 -65 -25 -65 -14 0 -25 -4 -25 -10 0 -6 28 -10 65 -10 37 0 65 4 65 10 0 6 -11 10 -25 10 -24 0 -25 2 -25 65 0 51 -3 65 -15 65 -12 0 -15 -14 -15 -65z"/>
<path d="M2800 2705 c0 -60 3 -75 15 -75 12 0 15 15 15 75 0 60 -3 75 -15 75 -12 0 -15 -15 -15 -75z"/>
<path d="M3110 2705 c0 -92 14 -97 61 -23 l34 53 3 -53 c2 -40 7 -52 19 -52 13 0 15 9 9 53 -3 28 -6 62 -6 75 0 35 -15 26 -51 -30 l-34 -53 -3 53 c-2 37 -7 52 -18 52 -11 0 -14 -16 -14 -75z"/>
<path d="M3760 2610 c0 -27 -3 -30 -30 -30 -25 0 -30 -4 -30 -25 0 -21 5 -25 30 -25 27 0 30 -3 30 -34 0 -30 3 -33 28 -32 23 1 27 6 30 35 3 31 5 33 33 27 27 -5 29 -3 29 24 0 27 -3 30 -30 30 -27 0 -30 3 -30 30 0 27 -3 30 -30 30 -27 0 -30 -3 -30 -30z"/>
<path d="M1494 2186 c-51 -23 -59 -72 -18 -105 29 -23 89 -28 114 -10 11 8 6 9 -21 5 -49 -8 -85 19 -75 57 11 44 77 52 146 17 56 -29 107 -93 185 -235 39 -70 91 -153 117 -185 l47 -59 -43 -6 c-84 -13 -268 27 -339 73 -99 65 -103 181 -6 184 27 1 40 -7 71 -42 33 -37 38 -40 38 -21 0 32 -52 81 -87 82 -70 3 -106 -16 -122 -63 -13 -38 -5 -74 26 -116 32 -42 97 -74 208 -102 74 -19 107 -22 185 -17 71 4 101 2 120 -8 35 -20 46 -18 26 4 -16 18 -15 20 28 41 114 55 127 145 31 228 -65 57 -161 92 -254 92 -34 0 -42 5 -84 60 -59 75 -114 116 -178 129 -63 14 -77 13 -115 -3z m472 -221 c120 -34 205 -139 174 -216 -12 -29 -72 -69 -104 -69 -15 0 -186 278 -186 304 0 8 39 2 116 -19z"/>
<path d="M2040 2165 c0 -11 173 -351 192 -377 11 -16 28 -28 39 -28 24 0 24 3 -4 48 -34 53 -127 227 -127 237 0 4 16 -9 36 -28 36 -35 109 -75 119 -65 3 3 -6 25 -20 49 -37 65 -60 138 -47 151 17 17 42 -10 74 -82 43 -96 92 -140 156 -140 29 0 61 24 48 37 -3 3 -6 1 -6 -5 0 -21 -56 -13 -83 12 -41 38 -87 117 -87 148 0 55 46 29 96 -54 41 -69 60 -89 78 -82 9 3 4 21 -16 61 -30 60 -36 103 -15 103 24 0 110 -171 122 -242 5 -28 12 -38 26 -38 24 0 26 36 2 69 l-16 24 46 -5 c26 -3 47 -2 47 2 0 4 -13 36 -29 71 -17 35 -33 77 -37 92 -6 25 -4 28 12 25 12 -2 34 -32 59 -79 54 -102 73 -129 90 -129 21 0 19 16 -10 58 -39 58 -29 59 29 3 81 -76 125 -65 75 19 l-21 35 28 -26 c43 -39 106 -79 126 -79 15 0 11 13 -22 82 -39 80 -47 108 -34 121 15 15 45 -17 74 -80 47 -101 94 -143 158 -143 29 0 61 24 48 37 -3 3 -6 1 -6 -5 0 -21 -56 -13 -83 12 -41 38 -87 117 -87 148 0 55 46 29 96 -54 41 -69 60 -89 78 -82 9 3 4 21 -16 61 -33 65 -37 106 -11 101 10 -2 19 -12 21 -23 2 -11 12 -29 22 -40 10 -11 35 -55 56 -98 37 -78 64 -101 96 -81 9 6 6 10 -11 14 -33 8 -45 53 -26 91 21 40 19 92 -6 123 -15 19 -17 26 -7 26 30 0 71 -60 98 -142 25 -78 26 -83 8 -86 -23 -4 -13 -22 12 -22 13 0 29 -19 51 -61 38 -71 71 -98 94 -79 20 17 19 26 -10 88 -23 51 -24 52 -4 52 11 0 17 5 14 10 -3 6 -14 10 -24 10 -41 0 -138 163 -124 208 8 22 42 12 67 -20 28 -37 66 -129 66 -158 0 -15 7 -20 25 -20 14 0 25 4 25 9 0 5 -16 47 -35 92 -43 101 -43 111 -8 107 23 -2 34 -16 70 -83 23 -44 56 -92 73 -107 54 -49 125 -29 104 30 -5 15 -18 28 -28 30 -15 3 -16 1 -7 -16 30 -57 -11 -71 -55 -19 -68 81 -73 177 -8 177 24 0 73 -50 100 -103 10 -18 19 -26 21 -19 7 18 -42 96 -71 116 -14 9 -43 16 -65 16 -32 0 -44 -5 -57 -25 l-17 -26 -27 26 c-31 30 -65 32 -80 5 -11 -20 -11 -20 -40 1 -34 25 -75 20 -85 -11 -6 -20 -7 -20 -37 5 -23 20 -40 25 -83 25 -35 0 -57 -5 -65 -15 -12 -14 -15 -14 -30 0 -26 23 -50 18 -64 -15 l-12 -30 -29 30 c-34 35 -64 36 -81 3 l-11 -23 -23 25 c-38 40 -90 28 -90 -21 0 -11 11 -42 25 -68 29 -54 29 -56 12 -56 -18 0 -79 65 -116 124 -24 39 -32 46 -37 32 -7 -18 2 -54 30 -118 36 -83 -50 -15 -108 85 -26 43 -29 45 -72 45 -38 0 -47 -3 -56 -24 -10 -21 -7 -34 15 -80 31 -63 33 -79 11 -88 -27 -10 -32 -7 -45 32 -28 89 -83 162 -121 162 -12 0 -24 -12 -32 -30 l-12 -30 -29 30 c-34 35 -58 38 -79 9 l-14 -21 -21 21 c-29 29 -69 27 -82 -3 -9 -20 -7 -34 15 -81 30 -67 30 -65 12 -65 -18 0 -77 65 -111 124 -17 29 -34 46 -46 46 -10 0 -19 -2 -19 -5z m1290 -25 c16 -16 20 -33 20 -82 0 -35 -5 -70 -10 -78 -5 -8 -10 -13 -10 -10 0 3 -9 29 -19 57 -14 38 -17 62 -11 88 5 20 4 33 -1 29 -5 -3 -9 -13 -9 -22 0 -12 -3 -13 -11 -5 -15 15 -4 43 16 43 8 0 24 -9 35 -20z m230 -202 c0 -5 -6 -8 -13 -8 -8 0 -21 19 -30 43 l-17 42 30 -35 c16 -19 30 -38 30 -42z m40 -74 c40 -91 18 -102 -29 -14 -31 57 -31 60 -11 60 15 0 26 -12 40 -46z"/>
</g>
<g id="layer113" fill="#d1d9d6" stroke="none">
<path d="M1735 3849 c-16 -5 -74 -30 -127 -57 -80 -39 -93 -43 -75 -23 l22 24 -32 -23 c-18 -13 -29 -28 -26 -33 4 -6 0 -8 -9 -4 -9 3 -24 -3 -34 -14 -9 -10 -24 -19 -33 -19 -17 0 -52 -34 -45 -44 2 -3 1 -4 -2 -1 -10 7 -216 -187 -277 -263 -76 -93 -178 -263 -220 -369 -70 -176 -114 -326 -124 -418 -10 -90 -12 -365 -3 -439 16 -137 90 -365 163 -505 33 -65 63 -111 167 -266 37 -55 161 -183 235 -242 101 -81 256 -185 315 -211 25 -11 70 -32 101 -45 60 -27 183 -67 205 -67 8 0 14 5 14 10 0 6 -6 10 -14 10 -25 0 -190 90 -221 120 -17 17 -35 30 -41 30 -5 0 -15 9 -22 20 -6 11 -18 17 -26 14 -7 -3 -16 2 -19 10 -3 9 -22 22 -42 30 -19 8 -35 21 -35 29 0 8 -9 22 -20 32 -11 10 -17 21 -15 26 3 4 -3 10 -14 14 -11 3 -22 13 -25 21 -3 8 -2 12 4 9 22 -14 8 13 -23 43 -36 35 -60 42 -50 15 6 -16 5 -16 -10 -4 -20 16 -22 32 -4 29 26 -6 6 41 -35 79 -9 9 -15 20 -12 24 2 4 -7 16 -21 27 -13 11 -21 22 -18 26 3 3 -1 6 -10 6 -9 0 -17 -4 -17 -9 0 -11 25 -32 32 -26 2 3 5 -2 5 -10 0 -8 -4 -15 -9 -15 -4 0 -8 5 -8 12 0 6 -3 9 -6 5 -4 -3 -13 0 -20 8 -11 11 -21 11 -44 3 -17 -5 -30 -14 -30 -19 0 -20 -20 -7 -26 16 -3 14 -12 25 -20 25 -12 0 -19 19 -15 43 0 4 -5 6 -11 5 -8 -2 -12 6 -10 19 3 20 -8 29 -22 21 -10 -6 -53 68 -45 76 10 11 12 33 3 23 -3 -3 -12 -1 -18 6 -10 9 -10 16 1 37 11 22 11 27 -10 42 -14 11 -21 25 -19 41 2 17 -5 29 -22 41 -17 10 -26 26 -26 41 0 18 -8 28 -25 35 -14 5 -25 12 -25 15 0 4 4 4 9 1 11 -7 25 49 16 64 -3 5 -12 10 -18 10 -7 0 -12 16 -12 39 -1 25 -8 48 -20 62 -11 11 -19 29 -17 39 2 10 -2 21 -8 25 -5 3 -10 11 -10 16 0 6 4 8 9 5 22 -14 20 87 -3 129 -11 21 -14 36 -18 96 -2 23 1 36 10 36 7 0 12 -15 12 -38 0 -21 5 -41 11 -45 9 -5 10 6 5 40 -4 26 -3 46 2 46 5 0 6 17 2 39 -4 23 -3 44 2 49 6 6 6 17 -1 29 -14 28 -10 63 9 64 10 0 11 2 2 6 -6 2 -10 9 -6 14 3 5 0 9 -6 9 -6 0 -5 11 5 30 9 17 20 30 25 30 16 0 12 42 -5 60 -14 16 -14 22 3 66 10 27 18 69 17 92 -1 37 2 45 22 53 26 10 31 29 8 29 -21 0 -19 13 5 35 11 10 20 26 20 35 0 10 7 23 15 30 8 7 15 18 15 25 0 7 7 18 15 25 8 6 14 15 13 18 -3 25 4 42 14 36 7 -4 8 -3 4 5 -4 6 2 23 13 37 l21 27 1 -24 c0 -15 3 -19 6 -9 3 8 13 19 21 24 12 7 12 10 1 17 -12 7 -12 10 0 21 10 10 12 10 7 1 -10 -19 -1 -16 15 4 10 11 10 14 2 9 -22 -12 -15 19 8 40 12 10 27 31 35 46 8 16 18 27 22 27 20 -3 33 2 27 11 -3 6 1 10 10 10 10 0 15 7 13 17 -2 15 3 17 32 14 37 -3 52 -11 34 -18 -6 -2 -20 -11 -30 -19 -18 -14 -17 -15 11 -9 17 3 37 15 45 26 8 12 25 31 38 44 15 15 20 29 16 41 -4 11 -4 16 1 12 10 -10 55 42 49 57 -7 16 43 38 50 22 2 -7 2 2 -1 19 -3 18 0 35 6 38 7 5 8 1 4 -11 -6 -17 -5 -17 13 -2 10 9 29 20 42 23 12 4 27 16 32 27 6 10 19 19 30 19 10 0 20 4 22 10 2 5 39 34 83 65 77 54 82 63 20 44z m-318 -166 c-4 -3 -10 -3 -14 0 -3 4 0 7 7 7 7 0 10 -3 7 -7z m-517 -1767 c0 -11 -19 -15 -25 -6 -3 5 1 10 9 10 9 0 16 -2 16 -4z m107 -231 c8 -22 -6 -33 -17 -15 -13 20 -12 30 0 30 6 0 13 -7 17 -15z m263 -315 c0 -5 -9 -10 -20 -10 -11 0 -20 5 -20 10 0 6 9 10 20 10 11 0 20 -4 20 -10z m50 -11 c0 -18 -2 -19 -15 -9 -15 12 -12 30 6 30 5 0 9 -10 9 -21z m-103 -4 c0 -11 -4 -12 -14 -4 -7 6 -13 13 -13 15 0 2 6 4 13 4 8 0 14 -7 14 -15z m133 -13 c0 -15 -16 -30 -40 -36 l-25 -7 23 20 c12 10 22 24 22 31 0 6 5 8 10 5 6 -3 10 -9 10 -13z m-83 -9 c-4 -3 -10 -3 -14 0 -3 4 0 7 7 7 7 0 10 -3 7 -7z m78 -63 c3 -5 4 -10 1 -10 -3 0 -8 5 -11 10 -3 6 -4 10 -1 10 3 0 8 -4 11 -10z m90 -68 c-6 -6 -35 18 -35 29 0 5 9 1 20 -8 11 -9 17 -19 15 -21z m210 -182 c3 -5 4 -10 1 -10 -3 0 -8 5 -11 10 -3 6 -4 10 -1 10 3 0 8 -4 11 -10z"/>
<path d="M1494 2186 c-51 -23 -59 -72 -18 -105 28 -22 75 -26 109 -10 15 7 12 8 -13 3 -38 -7 -82 17 -82 44 0 55 73 71 148 33 58 -30 108 -93 187 -236 39 -70 91 -153 117 -185 l47 -59 -45 -7 c-89 -13 -262 25 -336 73 -69 46 -100 130 -60 165 44 39 108 23 138 -33 20 -39 28 -33 13 10 -19 55 -110 81 -164 45 -29 -19 -47 -67 -39 -103 26 -107 172 -171 399 -175 76 -2 139 -7 152 -14 32 -17 39 -15 19 7 -16 18 -15 20 28 41 114 55 127 145 31 228 -65 57 -161 92 -254 92 -34 0 -42 5 -84 60 -59 75 -114 116 -178 129 -63 14 -77 13 -115 -3z m472 -221 c120 -34 205 -139 174 -216 -12 -29 -72 -69 -104 -69 -15 0 -186 278 -186 304 0 8 39 2 116 -19z"/>
</g>
<g id="layer114" fill="#e9dbc7" stroke="none">
<path d="M1730 3841 c-8 -5 -33 -17 -55 -26 -22 -10 -48 -22 -57 -26 -10 -5 -25 -9 -33 -9 -9 0 -14 -4 -11 -8 3 -5 -10 -16 -29 -25 -41 -19 -44 -13 -12 21 l22 25 -32 -23 c-18 -13 -29 -28 -26 -33 4 -6 0 -8 -9 -4 -15 5 -53 -24 -45 -34 2 -2 -26 -26 -62 -52 l-66 -48 47 44 c25 25 52 47 60 50 10 4 10 6 -1 6 -8 1 -44 -28 -80 -63 -36 -35 -95 -91 -131 -125 -36 -33 -65 -64 -65 -68 0 -5 -23 -31 -50 -59 -117 -120 -258 -413 -321 -669 -22 -91 -25 -119 -29 -310 -5 -194 5 -286 45 -424 71 -242 117 -334 296 -595 22 -32 169 -184 214 -222 64 -54 199 -148 237 -166 23 -11 47 -26 54 -34 6 -7 15 -11 20 -8 5 3 9 0 9 -5 0 -6 8 -11 17 -11 9 0 35 -9 57 -19 120 -56 175 -74 162 -52 -3 5 -29 20 -58 34 -29 14 -68 39 -87 56 -19 17 -38 28 -42 25 -5 -3 -9 4 -9 14 0 22 -23 46 -34 35 -3 -4 -13 3 -22 15 -8 12 -20 20 -25 17 -5 -4 -30 14 -56 39 -37 36 -45 48 -34 55 11 7 9 10 -7 15 -11 4 -23 14 -26 22 -3 8 -2 12 4 9 22 -14 8 13 -23 43 -36 35 -60 42 -50 15 6 -16 5 -16 -10 -4 -20 16 -22 32 -4 29 26 -6 6 41 -35 79 -9 9 -15 20 -12 24 2 4 -7 16 -21 27 -13 11 -21 22 -18 26 3 3 -1 6 -10 6 -9 0 -17 -4 -17 -9 0 -11 25 -32 32 -26 2 3 5 -2 5 -10 0 -8 -4 -15 -9 -15 -4 0 -8 5 -8 12 0 6 -3 9 -6 5 -4 -3 -13 0 -20 8 -11 11 -21 11 -44 3 -17 -5 -30 -14 -30 -19 0 -20 -20 -7 -26 16 -3 14 -12 25 -20 25 -12 0 -19 19 -15 43 0 4 -5 6 -11 5 -8 -2 -12 6 -10 20 2 12 -2 22 -7 22 -20 0 -26 4 -47 35 -12 17 -18 34 -13 39 10 11 12 33 3 23 -3 -3 -12 -1 -18 6 -10 9 -10 16 1 37 11 22 11 27 -10 42 -14 11 -21 25 -19 41 2 17 -5 29 -22 41 -17 10 -26 26 -26 41 0 18 -8 28 -25 35 -14 5 -25 12 -25 15 0 4 4 4 9 1 11 -7 25 49 16 64 -3 5 -12 10 -18 10 -7 0 -12 16 -12 39 -1 25 -8 48 -20 62 -11 11 -19 29 -17 39 2 10 -2 21 -8 25 -5 3 -10 11 -10 16 0 6 4 8 9 5 22 -14 20 87 -3 129 -11 21 -14 36 -18 96 -2 23 1 36 10 36 7 0 12 -15 12 -38 0 -21 5 -41 11 -45 9 -5 10 6 5 40 -4 26 -3 46 2 46 5 0 6 17 2 39 -4 23 -3 44 2 49 6 6 6 17 -1 29 -14 28 -10 63 9 64 10 0 11 2 2 6 -6 2 -10 9 -6 14 3 5 0 9 -6 9 -6 0 -5 11 5 30 9 17 20 30 25 30 16 0 12 42 -5 60 -14 16 -14 22 3 66 10 27 18 69 17 92 -1 37 2 45 22 53 26 10 31 29 8 29 -21 0 -19 13 5 35 11 10 20 26 20 35 0 10 7 23 15 30 8 7 15 18 15 25 0 7 7 18 15 25 8 6 14 15 13 18 -3 25 4 42 14 36 7 -4 8 -3 4 5 -4 6 2 23 13 37 l21 27 1 -24 c0 -15 3 -19 6 -9 3 8 13 19 21 24 12 7 12 10 1 17 -12 7 -12 10 0 21 12 11 12 10 6 -2 -8 -13 -7 -13 8 -1 18 15 23 26 7 16 -19 -12 -10 22 11 41 12 10 27 31 35 46 8 16 18 27 22 27 20 -3 33 2 27 11 -3 6 1 10 10 10 10 0 15 7 13 17 -2 15 3 17 32 14 37 -3 52 -11 34 -18 -6 -2 -20 -11 -30 -19 -18 -14 -17 -15 11 -9 17 3 37 15 45 26 8 12 25 31 38 44 15 15 20 29 16 41 -4 11 -4 16 1 12 10 -10 55 42 49 57 -7 16 43 38 50 22 2 -7 2 2 -1 19 -3 18 0 35 6 38 7 5 8 1 4 -11 -6 -17 -5 -17 13 -2 10 8 31 20 47 27 15 6 27 16 27 20 0 5 26 25 58 45 83 51 161 126 92 88z m-830 -1925 c0 -11 -19 -15 -25 -6 -3 5 1 10 9 10 9 0 16 -2 16 -4z m107 -231 c8 -22 -6 -33 -17 -15 -13 20 -12 30 0 30 6 0 13 -7 17 -15z m263 -315 c0 -5 -9 -10 -20 -10 -11 0 -20 5 -20 10 0 6 9 10 20 10 11 0 20 -4 20 -10z m50 -11 c0 -18 -2 -19 -15 -9 -15 12 -12 30 6 30 5 0 9 -10 9 -21z m-103 -4 c0 -11 -4 -12 -14 -4 -7 6 -13 13 -13 15 0 2 6 4 13 4 8 0 14 -7 14 -15z m133 -13 c0 -15 -16 -30 -40 -36 l-25 -7 23 20 c12 10 22 24 22 31 0 6 5 8 10 5 6 -3 10 -9 10 -13z m-83 -9 c-4 -3 -10 -3 -14 0 -3 4 0 7 7 7 7 0 10 -3 7 -7z m78 -63 c3 -5 4 -10 1 -10 -3 0 -8 5 -11 10 -3 6 -4 10 -1 10 3 0 8 -4 11 -10z m90 -68 c-6 -6 -35 18 -35 29 0 5 9 1 20 -8 11 -9 17 -19 15 -21z m210 -182 c3 -5 4 -10 1 -10 -3 0 -8 5 -11 10 -3 6 -4 10 -1 10 3 0 8 -4 11 -10z"/>
<path d="M1238 3351 c-11 -4 -14 -11 -9 -19 6 -10 10 -10 21 3 15 19 11 25 -12 16z"/>
<path d="M1015 3120 c4 -6 1 -19 -7 -28 -11 -15 -11 -15 3 -5 9 7 18 10 22 7 3 -3 3 3 0 15 -3 12 -10 21 -15 21 -5 0 -6 -5 -3 -10z"/>
<path d="M914 2928 c-4 -7 -3 -8 4 -4 7 4 12 9 12 12 0 8 -9 4 -16 -8z"/>
<path d="M1033 1593 c4 -3 10 -3 14 0 3 4 0 7 -7 7 -7 0 -10 -3 -7 -7z"/>
</g>
<g id="layer115" fill="#d5e7ef" stroke="none">
<path d="M1730 3841 c-8 -5 -33 -17 -55 -26 -22 -10 -48 -22 -57 -26 -10 -5 -25 -9 -33 -9 -9 0 -14 -4 -11 -8 3 -5 -10 -16 -29 -25 -41 -19 -44 -13 -12 21 l22 25 -32 -23 c-18 -13 -29 -28 -26 -33 4 -6 0 -8 -9 -4 -15 5 -53 -24 -45 -34 2 -2 -26 -26 -62 -52 l-66 -48 47 44 c25 25 52 47 60 50 11 4 10 6 -1 6 -17 1 -138 -116 -266 -256 -67 -74 -112 -135 -163 -225 -74 -130 -142 -271 -142 -295 0 -7 -8 -30 -19 -51 -10 -20 -24 -64 -30 -97 -7 -33 -16 -69 -21 -80 -14 -31 -22 -164 -21 -335 2 -177 14 -290 42 -372 10 -32 19 -67 19 -79 0 -13 6 -30 13 -38 7 -9 20 -36 27 -61 8 -25 27 -71 42 -103 16 -31 28 -60 28 -63 0 -3 22 -39 50 -81 27 -42 50 -79 50 -83 0 -3 13 -19 30 -35 17 -16 30 -33 30 -38 0 -12 95 -124 137 -161 18 -16 33 -35 33 -42 0 -8 4 -14 8 -14 5 0 17 -8 28 -18 37 -35 282 -200 324 -219 98 -45 215 -93 227 -93 24 0 5 16 -49 43 -29 14 -68 39 -87 56 -19 17 -38 28 -42 25 -5 -3 -9 4 -9 14 0 22 -23 46 -34 35 -3 -4 -13 3 -22 15 -8 12 -21 19 -29 16 -8 -4 -30 12 -54 38 -43 45 -49 58 -28 58 6 0 4 5 -6 11 -10 6 -24 8 -31 6 -8 -3 -30 8 -50 25 -20 16 -36 26 -36 22 0 -4 -8 2 -17 12 -10 10 -29 21 -43 22 -14 2 -27 9 -29 15 -2 6 -23 29 -47 52 -24 22 -44 48 -44 55 0 13 2 13 10 0 5 -8 10 -10 10 -4 0 6 -7 17 -15 24 -10 9 -15 9 -15 1 0 -21 -20 -11 -26 14 -3 14 -12 25 -20 25 -8 0 -14 6 -14 14 0 7 -6 19 -14 25 -8 7 -12 21 -9 31 5 18 -1 23 -27 22 -3 0 -15 16 -27 35 -13 19 -19 32 -14 29 5 -4 4 5 -2 19 -7 14 -15 25 -19 25 -16 0 -37 57 -26 68 7 7 3 18 -16 37 -18 18 -25 33 -21 46 5 14 -2 28 -24 48 -28 26 -44 60 -22 47 11 -7 25 49 16 64 -3 5 -12 10 -19 10 -8 0 -11 10 -9 28 2 16 -5 41 -19 62 -12 19 -21 42 -19 52 1 9 -3 19 -9 23 -5 3 -10 11 -10 16 0 6 4 8 9 5 23 -15 19 69 -7 134 -7 18 -11 44 -14 91 -2 26 1 36 12 36 36 0 37 3 30 42 -4 22 -3 44 2 49 9 9 1 42 -12 42 -4 0 -5 11 -2 25 2 15 0 25 -7 25 -7 0 -9 5 -4 13 8 12 11 32 13 97 1 19 7 38 13 42 9 5 9 12 1 25 -14 24 7 89 28 87 10 -1 14 5 11 16 -3 10 1 28 7 40 8 15 8 20 1 16 -6 -4 -11 0 -11 8 0 9 9 16 20 16 18 0 19 3 9 21 -9 17 -7 25 10 43 12 12 21 30 21 39 0 9 5 19 11 22 5 4 14 18 20 32 5 14 14 21 21 17 7 -4 8 -3 4 4 -10 16 4 63 17 55 6 -3 7 -1 3 6 -8 12 28 64 37 54 3 -3 14 -2 24 1 15 6 15 8 3 16 -13 8 -13 11 -1 22 11 11 13 11 6 -1 -5 -9 -4 -12 3 -7 6 4 8 14 5 22 -3 9 5 27 19 42 14 15 31 37 37 49 6 13 15 22 19 22 20 -3 33 2 27 11 -3 6 1 10 10 10 10 0 15 7 13 18 -2 11 3 16 14 14 21 -3 60 46 53 69 -5 16 35 59 55 59 11 0 19 -50 9 -56 -14 -8 -10 -34 5 -34 9 0 12 7 9 20 -4 13 1 22 13 27 24 9 43 34 38 48 -3 6 6 17 20 25 14 7 26 22 28 34 2 12 10 21 18 22 39 3 47 5 66 20 10 8 12 13 4 9 -17 -6 -6 1 89 64 36 23 74 52 84 62 18 20 13 24 -13 10z m-883 -1388 c-4 -3 -7 0 -7 7 0 7 3 10 7 7 3 -4 3 -10 0 -14z m20 -465 c-3 -8 -6 -5 -6 6 -1 11 2 17 5 13 3 -3 4 -12 1 -19z m33 -72 c0 -11 -19 -15 -25 -6 -3 5 1 10 9 10 9 0 16 -2 16 -4z m595 -799 c4 5 5 3 1 -4 -5 -9 -13 -8 -33 2 -15 8 -30 12 -35 9 -4 -3 -8 0 -8 5 0 6 7 11 15 11 8 0 15 6 15 13 0 6 8 0 18 -16 10 -15 22 -24 27 -20z m150 -97 c3 -5 4 -10 1 -10 -3 0 -8 5 -11 10 -3 6 -4 10 -1 10 3 0 8 -4 11 -10z"/>
<path d="M1900 2770 c0 -5 16 -10 35 -10 43 0 47 -22 8 -47 -43 -26 -54 -43 -42 -64 10 -20 79 -28 79 -10 0 6 -12 9 -27 8 -42 -3 -41 26 2 51 38 23 49 65 19 76 -25 10 -74 7 -74 -4z"/>
<path d="M2076 2761 c-10 -11 -18 -36 -18 -56 0 -47 25 -75 68 -75 37 0 74 37 74 75 0 12 -9 34 -21 49 -25 32 -77 36 -103 7z m92 -33 c9 -20 10 -32 1 -52 -15 -33 -37 -40 -65 -21 -27 17 -33 72 -12 93 21 21 61 10 76 -20z"/>
<path d="M2270 2705 c0 -43 4 -75 10 -75 6 0 10 28 10 65 l0 65 35 0 c19 0 35 5 35 10 0 6 -20 10 -45 10 l-45 0 0 -75z"/>
<path d="M2447 2762 c-19 -21 -24 -132 -7 -132 6 0 10 22 10 49 0 67 7 81 40 81 33 0 40 -14 40 -81 0 -27 5 -49 10 -49 16 0 12 103 -6 128 -19 27 -64 29 -87 4z"/>
<path d="M2660 2715 c0 -58 -2 -65 -19 -65 -11 0 -23 -4 -26 -10 -4 -6 17 -10 54 -10 34 0 61 4 61 10 0 6 -11 10 -25 10 -24 0 -25 2 -25 65 0 37 -4 65 -10 65 -6 0 -10 -28 -10 -65z"/>
<path d="M2800 2705 c0 -43 4 -75 10 -75 6 0 10 32 10 75 0 43 -4 75 -10 75 -6 0 -10 -32 -10 -75z"/>
<path d="M2920 2760 c-24 -24 -26 -77 -4 -108 34 -49 124 -15 124 47 0 67 -75 106 -120 61z m91 -24 c26 -56 -20 -112 -67 -81 -27 17 -34 71 -12 93 22 22 67 15 79 -12z"/>
<path d="M3110 2705 c0 -92 14 -97 61 -23 l34 53 3 -53 c3 -50 14 -67 25 -38 7 19 -4 136 -13 136 -5 0 -23 -24 -41 -52 l-34 -53 -3 53 c-2 37 -7 52 -18 52 -11 0 -14 -16 -14 -75z"/>
<path d="M3315 2770 c-4 -6 8 -10 29 -10 49 0 49 -30 0 -53 -29 -14 -35 -22 -32 -45 3 -23 8 -27 41 -30 23 -2 37 1 37 8 0 7 -7 10 -15 6 -20 -7 -45 3 -45 20 0 7 13 20 30 29 61 31 58 85 -5 85 -18 0 -37 -4 -40 -10z"/>
<path d="M3760 2610 c0 -27 -3 -30 -30 -30 -25 0 -30 -4 -30 -25 0 -21 5 -25 30 -25 27 0 30 -3 30 -30 0 -27 3 -30 30 -30 27 0 30 3 30 30 0 27 3 30 30 30 25 0 30 4 30 25 0 21 -5 25 -30 25 -27 0 -30 3 -30 30 0 27 -3 30 -30 30 -27 0 -30 -3 -30 -30z"/>
<path d="M1494 2186 c-51 -23 -59 -72 -18 -105 28 -22 75 -26 109 -10 15 7 12 8 -13 3 -38 -7 -82 17 -82 44 0 55 73 71 148 33 58 -30 108 -93 187 -236 39 -70 91 -153 117 -185 l47 -59 -45 -7 c-89 -13 -262 25 -336 73 -69 46 -100 130 -60 165 44 39 108 23 138 -33 20 -39 28 -33 13 10 -19 55 -110 81 -164 45 -29 -19 -47 -67 -39 -103 25 -106 182 -174 404 -176 75 -1 134 -6 147 -13 31 -17 39 -15 19 7 -16 18 -15 20 28 41 114 55 127 145 31 228 -65 57 -161 92 -254 92 -34 0 -42 5 -84 60 -59 75 -114 116 -178 129 -63 14 -77 13 -115 -3z m472 -221 c120 -34 205 -139 174 -216 -12 -29 -72 -69 -104 -69 -15 0 -186 278 -186 304 0 8 39 2 116 -19z"/>
<path d="M2040 2165 c0 -11 173 -351 192 -377 11 -16 28 -28 39 -28 24 0 24 3 -4 48 -34 53 -127 227 -127 237 0 4 16 -9 36 -28 36 -35 109 -75 119 -65 3 3 -6 25 -20 49 -37 65 -60 138 -47 151 17 17 42 -10 74 -82 43 -96 92 -140 156 -140 29 0 61 24 48 37 -3 3 -6 1 -6 -5 0 -21 -56 -13 -83 12 -41 38 -87 117 -87 148 0 55 46 29 96 -54 41 -69 60 -89 78 -82 9 3 4 21 -16 61 -30 59 -36 103 -15 103 23 0 100 -149 119 -230 9 -38 16 -50 30 -50 23 0 24 37 1 69 l-16 24 46 -5 c26 -3 47 -2 47 2 0 4 -13 36 -29 71 -17 35 -33 77 -37 92 -6 25 -4 28 12 25 12 -2 34 -32 59 -79 54 -102 73 -129 90 -129 21 0 19 16 -10 58 -39 58 -29 59 29 3 81 -76 125 -65 75 19 l-21 35 28 -26 c43 -39 106 -79 126 -79 15 0 11 13 -22 82 -39 80 -47 108 -34 121 15 15 45 -17 74 -80 47 -101 94 -143 158 -143 29 0 61 24 48 37 -3 3 -6 1 -6 -5 0 -21 -56 -13 -83 12 -41 38 -87 117 -87 148 0 55 46 29 96 -54 41 -69 60 -89 78 -82 9 3 4 21 -16 61 -33 65 -37 106 -11 101 10 -2 19 -12 21 -23 2 -11 12 -29 22 -40 10 -11 32 -48 48 -83 17 -35 38 -72 48 -83 18 -20 54 -26 54 -9 0 5 -3 9 -7 9 -36 -6 -51 46 -28 91 21 41 19 93 -6 124 -15 19 -17 26 -7 26 30 0 71 -60 98 -142 25 -78 26 -83 8 -86 -23 -4 -13 -22 12 -22 13 0 29 -19 51 -61 38 -71 71 -98 94 -79 20 17 19 26 -10 88 -23 51 -24 52 -4 52 11 0 17 5 14 10 -3 6 -14 10 -24 10 -41 0 -138 163 -124 208 8 22 42 12 67 -20 28 -37 66 -129 66 -158 0 -15 7 -20 25 -20 14 0 25 4 25 9 0 5 -16 47 -35 92 -43 101 -43 111 -8 107 23 -2 34 -16 70 -83 23 -44 56 -92 73 -107 55 -50 132 -27 100 30 -19 32 -48 45 -31 14 30 -57 -11 -72 -55 -19 -53 63 -70 147 -33 170 31 19 68 -1 105 -58 20 -30 39 -55 41 -55 9 0 -32 68 -60 98 -26 26 -38 32 -74 32 -35 0 -46 -5 -59 -25 l-17 -26 -27 26 c-31 30 -65 32 -80 5 -11 -20 -11 -20 -40 1 -34 25 -75 20 -85 -11 -6 -20 -7 -20 -37 5 -23 20 -40 25 -83 25 -35 0 -57 -5 -65 -15 -12 -14 -15 -14 -30 0 -26 23 -50 18 -64 -15 l-12 -30 -29 30 c-34 35 -64 36 -81 3 l-11 -23 -23 25 c-38 40 -90 28 -90 -21 0 -11 11 -42 25 -68 29 -54 29 -56 12 -56 -18 0 -79 65 -116 124 -24 39 -32 46 -37 32 -7 -18 2 -54 30 -118 36 -83 -50 -15 -108 85 -26 43 -29 45 -72 45 -38 0 -47 -3 -56 -24 -10 -21 -7 -34 15 -80 31 -63 33 -79 11 -88 -27 -10 -32 -7 -45 32 -28 89 -83 162 -121 162 -12 0 -24 -12 -32 -30 l-12 -30 -29 30 c-34 35 -58 38 -79 9 l-14 -21 -21 21 c-29 29 -69 27 -82 -3 -9 -20 -7 -34 15 -81 30 -67 30 -65 12 -65 -18 0 -77 65 -111 124 -17 29 -34 46 -46 46 -10 0 -19 -2 -19 -5z m1290 -25 c16 -16 20 -33 20 -82 0 -35 -5 -70 -10 -78 -5 -8 -10 -13 -10 -10 0 3 -9 29 -19 57 -14 38 -17 62 -11 88 5 20 4 33 -1 29 -5 -3 -9 -13 -9 -22 0 -12 -3 -13 -11 -5 -15 15 -4 43 16 43 8 0 24 -9 35 -20z m230 -202 c0 -5 -6 -8 -13 -8 -8 0 -21 19 -30 43 l-17 42 30 -35 c16 -19 30 -38 30 -42z m40 -74 c40 -91 18 -102 -29 -14 -31 57 -31 60 -11 60 15 0 26 -12 40 -46z"/>
<path d="M1873 863 c4 -3 10 -3 14 0 3 4 0 7 -7 7 -7 0 -10 -3 -7 -7z"/>
</g>
<g id="layer116" fill="#f0e9d6" stroke="none">
<path d="M1676 3815 c-11 -8 -25 -15 -32 -15 -6 0 -38 -16 -70 -35 -64 -39 -80 -38 -43 2 l24 26 -32 -23 c-18 -13 -29 -28 -26 -33 4 -6 0 -8 -9 -4 -15 5 -53 -24 -45 -34 2 -2 -26 -26 -62 -52 l-66 -48 47 44 c25 25 52 47 60 50 11 4 10 6 -1 6 -17 1 -138 -116 -266 -256 -67 -74 -112 -135 -163 -225 -74 -130 -142 -271 -142 -295 0 -7 -8 -30 -19 -51 -10 -20 -24 -64 -30 -97 -7 -33 -16 -69 -21 -80 -14 -31 -22 -164 -21 -335 2 -177 14 -290 42 -372 10 -32 19 -67 19 -79 0 -13 6 -30 13 -38 7 -9 20 -36 27 -61 8 -25 27 -71 42 -103 16 -31 28 -60 28 -63 0 -3 22 -39 50 -81 27 -42 50 -79 50 -83 0 -3 13 -19 30 -35 16 -16 30 -33 30 -38 0 -12 95 -124 137 -161 18 -16 33 -35 33 -42 0 -8 4 -14 8 -14 5 0 17 -8 28 -18 37 -35 282 -200 324 -219 98 -45 215 -93 227 -93 24 0 5 16 -49 43 -29 14 -68 39 -87 56 -19 17 -38 28 -42 25 -5 -3 -9 4 -9 14 0 22 -23 46 -34 35 -3 -4 -13 3 -22 15 -8 12 -21 19 -29 16 -8 -4 -30 12 -54 38 -43 45 -49 58 -28 58 6 0 4 5 -6 11 -10 6 -24 8 -31 6 -8 -3 -30 8 -50 25 -20 16 -36 26 -36 22 0 -4 -8 2 -17 12 -10 10 -29 21 -43 22 -14 2 -27 9 -29 15 -2 6 -23 29 -47 52 -24 22 -44 48 -44 55 0 13 2 13 10 0 5 -8 10 -10 10 -4 0 6 -7 17 -15 24 -10 9 -15 9 -15 1 0 -21 -20 -11 -26 14 -3 14 -12 25 -20 25 -8 0 -14 6 -14 14 0 7 -6 19 -14 25 -8 7 -12 21 -9 31 5 18 -1 23 -27 22 -3 0 -15 16 -27 35 -13 19 -19 32 -14 29 5 -4 4 5 -2 19 -7 14 -15 25 -19 25 -16 0 -37 57 -26 68 7 7 3 18 -16 37 -18 18 -25 33 -21 46 5 14 -2 28 -24 48 -28 26 -44 60 -22 47 11 -7 25 49 16 64 -3 5 -12 10 -19 10 -8 0 -11 10 -9 28 2 16 -5 41 -19 62 -12 19 -21 42 -19 52 1 9 -3 19 -9 23 -5 3 -10 11 -10 16 0 6 4 8 9 5 23 -15 19 69 -7 134 -7 18 -11 44 -14 91 -2 26 1 36 12 36 36 0 37 3 30 42 -4 22 -3 44 2 49 9 9 1 42 -12 42 -4 0 -5 11 -2 25 2 15 0 25 -7 25 -7 0 -9 5 -4 13 8 12 11 32 13 97 1 19 7 38 13 42 9 5 9 12 1 25 -14 24 7 89 28 87 10 -1 14 5 11 16 -3 10 1 28 7 40 8 15 8 20 1 16 -6 -4 -11 0 -11 8 0 9 9 16 20 16 18 0 19 3 9 21 -9 17 -7 25 10 43 12 12 21 30 21 39 0 9 5 19 11 22 5 4 14 18 20 32 5 14 14 21 21 17 7 -4 8 -3 4 4 -10 16 4 63 17 55 6 -3 7 -1 3 6 -8 12 28 64 37 54 3 -3 14 -2 24 1 15 6 15 8 3 16 -13 8 -13 11 -1 22 11 11 13 11 6 -1 -5 -9 -4 -12 3 -7 6 4 8 14 5 22 -3 9 5 27 19 42 14 15 31 37 37 49 6 13 15 22 19 22 20 -3 33 2 27 11 -3 6 1 10 10 10 10 0 15 7 13 18 -2 11 3 16 14 14 21 -3 60 46 53 69 -5 16 35 59 55 59 11 0 19 -50 9 -56 -14 -8 -10 -34 5 -34 9 0 12 7 9 20 -4 13 1 22 13 27 24 9 43 34 38 48 -3 6 6 17 20 25 14 7 26 22 28 34 2 12 10 21 18 22 39 3 47 5 66 20 10 8 12 13 4 9 -17 -7 -5 2 96 68 41 27 74 51 74 53 0 10 -47 2 -64 -11z m-829 -1362 c-4 -3 -7 0 -7 7 0 7 3 10 7 7 3 -4 3 -10 0 -14z m20 -465 c-3 -8 -6 -5 -6 6 -1 11 2 17 5 13 3 -3 4 -12 1 -19z m33 -72 c0 -11 -19 -15 -25 -6 -3 5 1 10 9 10 9 0 16 -2 16 -4z m595 -799 c4 5 5 3 1 -4 -5 -9 -13 -8 -33 2 -15 8 -30 12 -35 9 -4 -3 -8 0 -8 5 0 6 7 11 15 11 8 0 15 6 15 13 0 6 8 0 18 -16 10 -15 22 -24 27 -20z m150 -97 c3 -5 4 -10 1 -10 -3 0 -8 5 -11 10 -3 6 -4 10 -1 10 3 0 8 -4 11 -10z"/>
<path d="M842 2350 c0 -14 2 -19 5 -12 2 6 2 18 0 25 -3 6 -5 1 -5 -13z"/>
<path d="M1320 1357 c0 -16 3 -18 9 -8 10 16 23 -1 16 -21 -3 -8 11 -30 35 -52 24 -22 38 -42 34 -49 -4 -7 -3 -9 1 -4 5 4 19 0 32 -8 13 -9 23 -12 23 -7 0 11 -64 72 -76 72 -5 0 -10 9 -11 20 -1 11 -9 27 -17 36 -9 8 -16 19 -16 24 0 4 -7 10 -15 14 -11 4 -15 -1 -15 -17z"/>
</g>
<g id="layer117" fill="#f6f7ed" stroke="none">
<path d="M1676 3815 c-11 -8 -25 -15 -32 -15 -6 0 -38 -16 -70 -35 -62 -38 -79 -38 -48 -2 10 13 7 10 -8 -5 -15 -15 -30 -28 -34 -28 -3 0 -19 -13 -36 -30 -16 -16 -25 -30 -20 -30 5 0 15 7 22 15 8 10 17 12 30 5 11 -6 21 -5 30 3 10 9 11 9 6 0 -5 -8 -1 -13 9 -13 9 0 13 5 9 11 -4 7 0 9 14 5 11 -4 23 -2 27 3 3 7 0 8 -9 5 -26 -10 -18 5 21 42 23 22 44 33 55 31 10 -3 26 2 35 11 9 9 23 17 31 18 8 2 19 7 25 13 17 17 -34 13 -57 -4z m-179 -112 c-4 -3 -10 -3 -14 0 -3 4 0 7 7 7 7 0 10 -3 7 -7z"/>
<path d="M1393 3679 c5 -17 -10 -39 -26 -39 -4 0 -5 6 -2 13 4 6 -46 -42 -111 -108 -100 -103 -169 -184 -222 -261 -56 -84 -172 -311 -172 -339 0 -7 -13 -43 -29 -82 -15 -38 -27 -81 -25 -96 1 -15 -2 -27 -7 -27 -6 0 -7 -4 -4 -10 3 -5 1 -19 -6 -31 -16 -31 -24 -157 -23 -369 2 -165 5 -196 28 -290 15 -58 29 -114 31 -124 10 -46 89 -234 116 -276 8 -14 34 -53 57 -88 23 -35 42 -67 42 -72 0 -5 6 -15 13 -22 7 -7 28 -35 47 -63 38 -55 212 -235 228 -235 18 0 42 12 42 21 0 4 -7 6 -15 3 -14 -6 -65 40 -65 57 0 5 -16 27 -36 48 -20 22 -53 57 -73 79 -20 22 -35 45 -33 50 2 6 -6 13 -17 17 -11 3 -18 12 -15 19 3 7 -2 16 -11 19 -11 5 -14 15 -10 34 5 27 5 27 -6 6 -14 -27 -24 -29 -26 -5 -2 30 -22 72 -34 72 -6 0 -9 6 -6 13 2 6 -3 17 -12 24 -12 10 -13 12 -2 13 8 0 2 9 -13 21 -14 11 -24 24 -21 29 3 5 -1 11 -7 13 -9 4 -9 6 -1 6 6 1 -2 15 -19 31 -21 21 -28 37 -25 51 3 12 -2 29 -11 40 -9 11 -15 22 -14 26 2 3 -2 9 -9 14 -7 4 -13 23 -13 43 -1 20 -5 36 -10 36 -5 0 -6 3 -3 6 12 12 -14 44 -35 44 -21 0 -21 0 2 20 13 11 27 20 32 20 4 0 8 5 8 10 0 6 -6 9 -12 8 -8 -2 -13 8 -12 25 0 15 -5 27 -10 27 -6 0 -11 20 -10 47 0 27 -2 53 -5 58 -9 15 -7 204 2 198 4 -2 7 0 7 6 0 5 -4 13 -10 16 -5 3 -10 17 -10 30 0 17 8 26 30 34 17 5 30 16 29 23 0 10 -2 10 -6 1 -7 -19 -27 -16 -41 7 -7 12 -8 20 -2 20 5 0 10 5 10 11 0 5 -4 7 -10 4 -5 -3 -10 2 -10 12 0 10 9 24 20 31 11 7 20 18 20 25 0 6 -5 4 -11 -5 -5 -10 -14 -18 -18 -18 -13 0 -1 140 14 175 7 17 19 48 25 70 7 22 17 45 22 51 5 7 8 16 7 20 -5 22 13 42 34 37 21 -5 21 -5 4 9 -18 14 -18 15 6 44 27 32 27 32 27 72 0 19 3 23 9 13 7 -10 10 -10 16 -1 4 7 1 16 -6 21 -14 8 -12 10 12 13 7 0 15 10 20 21 11 29 10 37 -3 30 -7 -4 -4 1 6 9 11 9 17 16 13 16 -3 0 4 10 16 23 12 12 29 21 38 19 9 -2 20 2 25 9 5 9 2 10 -10 6 -12 -5 -16 -3 -14 5 3 7 10 13 16 13 5 0 14 4 19 9 4 5 3 6 -3 3 -24 -14 -22 22 2 38 14 9 22 20 19 25 -4 6 0 10 8 10 8 0 20 13 26 28 7 16 38 56 70 90 32 33 56 64 53 67 -7 7 49 65 63 65 6 0 22 11 34 24 19 20 21 28 11 43 -9 13 -10 14 -7 2z m-33 -42 c0 -2 -10 -12 -22 -23 l-23 -19 19 23 c18 21 26 27 26 19z m-410 -601 c0 -3 -5 -8 -12 -12 -7 -4 -8 -3 -4 4 7 12 16 16 16 8z m-133 -543 c-4 -3 -7 0 -7 7 0 7 3 10 7 7 3 -4 3 -10 0 -14z"/>
<path d="M1540 3670 c-9 -6 -10 -10 -3 -10 6 0 15 5 18 10 8 12 4 12 -15 0z"/>
<path d="M1906 2771 c-3 -5 9 -8 27 -7 25 1 33 -3 35 -19 2 -15 -7 -25 -33 -38 -56 -27 -46 -77 15 -77 10 0 21 4 24 9 3 4 -5 6 -17 4 -56 -9 -57 34 -2 60 36 17 45 43 23 65 -14 14 -64 16 -72 3z"/>
<path d="M2080 2760 c-45 -45 -13 -130 48 -130 38 0 62 28 62 73 0 44 -28 77 -65 77 -14 0 -34 -9 -45 -20z m80 -10 c25 -25 26 -61 2 -90 -38 -47 -102 3 -86 66 11 44 52 56 84 24z"/>
<path d="M2282 2703 l2 -78 3 72 4 72 37 4 37 4 -42 1 -43 2 2 -77z"/>
<path d="M2450 2760 c-15 -15 -20 -33 -20 -75 0 -75 18 -70 22 6 2 46 8 65 21 73 32 20 51 -4 58 -75 l6 -64 1 67 c2 57 -1 69 -17 78 -29 15 -49 12 -71 -10z"/>
<path d="M2660 2711 c0 -64 -2 -70 -22 -74 -13 -2 4 -4 37 -4 33 0 48 2 33 4 -27 4 -28 6 -28 74 0 39 -4 69 -10 69 -6 0 -10 -30 -10 -69z"/>
<path d="M2813 2705 c0 -44 2 -61 4 -37 2 23 2 59 0 80 -2 20 -4 1 -4 -43z"/>
<path d="M2921 2754 c-12 -15 -21 -37 -21 -49 0 -35 37 -75 70 -75 40 0 74 44 66 85 -12 63 -79 85 -115 39z m79 -4 c36 -36 16 -110 -31 -110 -45 0 -66 74 -32 112 21 23 38 23 63 -2z"/>
<path d="M3110 2705 c0 -92 14 -97 61 -23 34 52 34 53 37 23 1 -17 5 -41 8 -55 4 -20 7 -22 14 -10 10 18 1 140 -10 140 -5 0 -23 -24 -41 -52 l-34 -53 -3 53 c-2 37 -7 52 -18 52 -11 0 -14 -16 -14 -75z"/>
<path d="M3315 2770 c-4 -6 5 -7 23 -4 20 4 32 1 42 -12 13 -15 13 -18 -4 -28 -10 -6 -31 -21 -45 -33 -21 -18 -24 -25 -15 -40 12 -19 74 -31 74 -15 0 6 -9 8 -20 5 -11 -3 -27 0 -35 7 -18 15 -6 34 37 56 47 24 31 74 -23 74 -15 0 -31 -4 -34 -10z"/>
<path d="M3766 2625 c-3 -8 -3 -22 0 -30 5 -11 -1 -15 -23 -15 -36 0 -42 -5 -36 -31 4 -13 14 -19 34 -19 26 0 29 -4 29 -30 0 -26 4 -30 26 -30 24 0 26 3 21 30 -6 28 -4 30 23 30 25 0 30 4 30 25 0 20 -5 25 -25 25 -21 0 -25 5 -25 30 0 25 -4 30 -24 30 -13 0 -26 -7 -30 -15z"/>
<path d="M1494 2186 c-75 -32 -45 -126 40 -126 l31 0 -35 18 c-64 32 -45 98 28 95 97 -4 162 -67 267 -258 39 -70 91 -153 117 -185 l47 -59 -46 -7 c-51 -7 -181 2 -197 14 -6 5 -31 14 -55 21 -91 26 -161 95 -161 158 0 35 23 58 68 68 28 6 37 2 67 -28 19 -19 35 -29 35 -23 0 25 -49 58 -93 63 -54 6 -91 -14 -106 -59 -29 -84 41 -160 191 -207 48 -15 237 -32 280 -24 22 3 46 -1 66 -11 41 -21 49 -20 28 3 -16 18 -15 20 28 41 114 55 127 145 31 228 -57 51 -111 73 -207 85 l-89 11 -35 47 c-43 59 -97 107 -140 125 -48 20 -124 25 -160 10z m446 -210 c51 -11 131 -59 164 -98 41 -48 52 -88 36 -129 -12 -29 -72 -69 -104 -69 -8 0 -39 42 -69 93 -73 123 -117 202 -117 210 0 7 39 4 90 -7z"/>
<path d="M2040 2165 c0 -11 173 -351 192 -377 11 -16 28 -28 39 -28 24 0 24 3 -4 48 -34 53 -127 227 -127 237 0 4 16 -9 36 -28 36 -35 109 -75 119 -65 3 3 -6 25 -20 49 -37 65 -60 138 -47 151 17 17 42 -10 74 -82 32 -71 58 -104 100 -126 48 -25 109 -13 108 21 0 5 -5 2 -11 -7 -10 -17 -23 -16 -67 5 -33 16 -102 123 -102 158 0 56 46 30 96 -53 41 -69 60 -89 78 -82 9 3 4 21 -16 61 -30 59 -36 103 -15 103 11 0 63 -69 60 -80 -1 -3 5 -11 13 -18 39 -36 -7 55 -50 98 -29 29 -55 25 -70 -10 l-12 -30 -29 30 c-34 35 -58 38 -79 9 l-14 -21 -21 21 c-29 29 -69 27 -82 -3 -9 -20 -7 -34 15 -81 30 -67 30 -65 12 -65 -18 0 -77 65 -111 124 -17 29 -34 46 -46 46 -10 0 -19 -2 -19 -5z"/>
<path d="M2598 2144 c-10 -21 -7 -34 15 -80 31 -63 33 -79 11 -88 -26 -10 -32 -7 -43 24 -5 17 -16 30 -23 30 -8 0 -9 -3 -3 -8 6 -4 12 -14 14 -22 34 -124 36 -130 53 -130 23 0 24 37 1 69 l-16 24 46 -5 c26 -3 47 -2 47 2 0 4 -13 36 -29 71 -17 35 -33 77 -37 92 -6 25 -4 28 12 25 12 -2 34 -32 59 -79 54 -102 73 -129 90 -129 21 0 19 16 -10 58 -39 58 -29 59 29 3 81 -76 125 -65 75 19 l-21 35 28 -26 c43 -39 106 -79 126 -79 15 0 11 13 -22 82 -39 80 -47 108 -34 121 15 15 45 -17 74 -80 35 -75 61 -108 102 -129 48 -25 109 -13 108 21 0 5 -5 2 -11 -7 -10 -17 -23 -16 -67 5 -33 16 -102 123 -102 158 0 56 46 30 96 -53 41 -69 60 -89 78 -82 9 3 4 21 -16 61 -33 65 -37 106 -11 101 10 -2 19 -12 21 -23 2 -11 12 -29 22 -40 10 -11 33 -50 50 -88 18 -37 42 -74 53 -82 26 -18 47 -20 25 -2 -24 19 -30 63 -13 97 21 41 19 92 -6 124 -16 20 -17 26 -6 26 26 0 75 -67 92 -127 25 -87 103 -241 131 -259 19 -13 27 -14 39 -4 20 17 19 26 -10 88 -23 51 -24 52 -4 52 11 0 17 5 14 10 -3 6 -14 10 -24 10 -41 0 -138 163 -124 208 8 22 42 12 67 -20 28 -37 66 -129 66 -158 0 -15 7 -20 25 -20 14 0 25 4 25 9 0 5 -16 47 -35 92 -43 101 -43 111 -8 107 23 -2 34 -16 70 -83 23 -44 56 -92 73 -107 32 -30 73 -36 94 -15 14 14 6 59 -12 65 -10 3 -10 -2 0 -22 15 -35 1 -49 -32 -33 -58 29 -111 155 -80 192 22 26 60 18 96 -21 43 -45 45 -37 3 11 -27 30 -37 35 -75 35 -36 0 -47 -5 -60 -25 l-17 -26 -27 26 c-31 30 -65 32 -80 5 -11 -20 -11 -20 -40 1 -34 25 -75 20 -85 -11 -6 -20 -7 -20 -37 5 -23 20 -41 25 -80 25 -32 0 -58 -6 -68 -15 -15 -14 -18 -14 -30 0 -21 25 -50 18 -64 -15 l-12 -30 -29 30 c-34 35 -64 36 -81 3 l-11 -23 -23 25 c-38 40 -90 28 -90 -21 0 -11 11 -42 25 -68 29 -54 29 -56 12 -56 -18 0 -79 65 -116 124 -24 39 -32 46 -37 32 -7 -18 2 -54 30 -118 36 -83 -50 -15 -108 85 -26 43 -29 45 -72 45 -38 0 -47 -3 -56 -24z m733 -5 c18 -18 20 -31 18 -100 -2 -43 -4 -79 -6 -79 -1 0 -12 18 -23 40 -11 22 -18 40 -15 40 3 0 1 8 -4 18 -6 11 -6 33 -1 55 4 21 4 35 -1 31 -5 -3 -9 -13 -9 -22 0 -12 -3 -13 -11 -5 -15 15 -4 43 16 43 8 0 24 -9 36 -21z m229 -201 c0 -5 -6 -8 -13 -8 -8 0 -21 19 -30 43 l-17 42 30 -35 c16 -19 30 -38 30 -42z m40 -74 c40 -91 18 -102 -29 -14 -31 57 -31 60 -11 60 15 0 26 -12 40 -46z"/>
<path d="M3636 1902 c-3 -5 1 -17 8 -27 16 -22 49 -13 44 12 -3 19 -42 30 -52 15z"/>
<path d="M970 1730 c0 -7 3 -10 7 -7 3 4 3 10 0 14 -4 3 -7 0 -7 -7z"/>
<path d="M1320 1357 c0 -16 3 -18 9 -8 10 16 23 -1 16 -21 -6 -15 113 -133 123 -123 7 7 -59 75 -73 75 -6 0 -11 9 -12 20 -1 11 -9 27 -17 36 -9 8 -16 19 -16 24 0 4 -7 10 -15 14 -11 4 -15 -1 -15 -17z"/>
<path d="M1450 1172 c0 -11 27 -40 60 -67 20 -16 19 -13 -5 13 -23 25 -27 35 -16 41 10 6 9 10 -4 15 -23 8 -35 8 -35 -2z"/>
<path d="M1376 1142 c-15 -3 -11 -11 25 -44 24 -22 64 -51 89 -66 25 -14 59 -36 75 -47 29 -21 97 -55 109 -55 4 0 41 -16 82 -35 72 -34 111 -44 100 -26 -3 5 -29 20 -58 34 -29 13 -66 36 -81 51 -15 14 -35 26 -43 26 -7 0 -14 8 -14 19 0 25 -25 47 -36 30 -4 -7 -3 -9 4 -5 6 3 13 2 16 -3 4 -5 -2 -8 -11 -6 -10 2 -21 4 -25 4 -4 1 -5 7 -2 14 3 8 -2 20 -11 27 -10 8 -15 9 -15 1 0 -20 -36 -12 -60 14 -13 14 -30 23 -38 20 -8 -3 -30 8 -50 23 -21 16 -45 26 -56 24z"/>
</g>


</svg>